# xmcd
#
# Track frame offsets:
#   150
#   12372
#   24331
#   36929
#   50134
#   62769
#   74497
#   87863
#   100647
#   113269
#   125693
#   138358
#
# Disc length: 2012 seconds
#
# Revision: 0
# Processed by: cddbd v1.5.1PL0 Copyright (c) Steve Scherf et al.
# Submitted via: uFREEDB 1.6.0
#
DISCID=9d07da0c
DTITLE=Hank Williams - Honky Tonk Hero
DYEAR=2004
DGENRE=Country
TTITLE0=I'll Be A Bachelor 'Till I Die
TTITLE1=I'm Satisfied With You
TTITLE2=Fly Trouble
TTITLE3=I'm A Long Gone Daddy
TTITLE4=My Sweet Love Ain't Around
TTITLE5=A Mansion On The Hill
TTITLE6=On The Banks Of The Old Ponchartrain
TTITLE7=Rootie Tootie
TTITLE8=Honky Tonkin'
TTITLE9=The Blues Come Around
TTITLE10=I Saw The Light
TTITLE11=Move It On Over
EXTD=Legacy
EXTT0=
EXTT1=
EXTT2=
EXTT3=
EXTT4=
EXTT5=
EXTT6=
EXTT7=
EXTT8=
EXTT9=
EXTT10=
EXTT11=
PLAYORDER=
